<svg xmlns="http://www.w3.org/2000/svg" xmlns:xlink="http://www.w3.org/1999/xlink" version="1.1" x="0px" y="0px" viewBox="0 0 164 205" enable-background="new 0 0 164 164" xml:space="preserve" width="32px" height="32px"><path fill="#375D3E" d="M7.295,150.117H163.68v7.294H0V12.141h7.295V150.117L7.295,150.117z M91.52,36.922  c-10.332,34.145-36.243,68.112-72.094,80.747c33.515-6.032,70.351-32.947,86.806-78.114l9.748,1.331L105.401,6.909L82.043,35.112  L91.52,36.922L91.52,36.922z M19.426,138.851h14.292v-10.718H19.426V138.851L19.426,138.851z M126.002,138.851h14.292V44.809  h-14.292V138.851L126.002,138.851z M108.239,138.851h14.292V59.966h-14.292V138.851L108.239,138.851z M90.477,138.851h14.292V82.424  H90.477V138.851L90.477,138.851z M72.713,138.851h14.293V98.095H72.713V138.851L72.713,138.851z M54.951,138.851h14.292v-27.349  H54.951V138.851L54.951,138.851z M37.188,138.851h14.292v-19.033H37.188V138.851z"/></svg>